<?xml version="1.0" standalone="no"?>
<svg xmlns:xlink="http://www.w3.org/1999/xlink" id="wave" style="transform:rotate(0deg); transition: 0.3s" viewBox="0 0 1440 210" version="1.1" xmlns="http://www.w3.org/2000/svg"><defs><linearGradient id="sw-gradient-0" x1="0" x2="0" y1="1" y2="0"><stop stop-color="rgba(62, 105.027, 243, 1)" offset="0%"/><stop stop-color="rgba(11, 168.201, 255, 1)" offset="100%"/></linearGradient></defs><path style="transform:translate(0, 0px); opacity:1" fill="url(#sw-gradient-0)" d="M0,63L15,73.5C30,84,60,105,90,119C120,133,150,140,180,126C210,112,240,77,270,84C300,91,330,140,360,143.5C390,147,420,105,450,101.5C480,98,510,133,540,133C570,133,600,98,630,73.5C660,49,690,35,720,49C750,63,780,105,810,101.5C840,98,870,49,900,28C930,7,960,14,990,42C1020,70,1050,119,1080,129.5C1110,140,1140,112,1170,87.5C1200,63,1230,42,1260,42C1290,42,1320,63,1350,59.5C1380,56,1410,28,1440,45.5C1470,63,1500,126,1530,143.5C1560,161,1590,133,1620,133C1650,133,1680,161,1710,147C1740,133,1770,77,1800,66.5C1830,56,1860,91,1890,98C1920,105,1950,84,1980,84C2010,84,2040,105,2070,105C2100,105,2130,84,2145,73.5L2160,63L2160,210L2145,210C2130,210,2100,210,2070,210C2040,210,2010,210,1980,210C1950,210,1920,210,1890,210C1860,210,1830,210,1800,210C1770,210,1740,210,1710,210C1680,210,1650,210,1620,210C1590,210,1560,210,1530,210C1500,210,1470,210,1440,210C1410,210,1380,210,1350,210C1320,210,1290,210,1260,210C1230,210,1200,210,1170,210C1140,210,1110,210,1080,210C1050,210,1020,210,990,210C960,210,930,210,900,210C870,210,840,210,810,210C780,210,750,210,720,210C690,210,660,210,630,210C600,210,570,210,540,210C510,210,480,210,450,210C420,210,390,210,360,210C330,210,300,210,270,210C240,210,210,210,180,210C150,210,120,210,90,210C60,210,30,210,15,210L0,210Z"/></svg>